<?xml version="1.0" encoding="UTF-8" standalone="no"?>
<svg
   xmlns:dc="http://purl.org/dc/elements/1.1/"
   xmlns:cc="http://creativecommons.org/ns#"
   xmlns:rdf="http://www.w3.org/1999/02/22-rdf-syntax-ns#"
   xmlns:svg="http://www.w3.org/2000/svg"
   xmlns="http://www.w3.org/2000/svg"
   xmlns:sodipodi="http://sodipodi.sourceforge.net/DTD/sodipodi-0.dtd"
   xmlns:inkscape="http://www.inkscape.org/namespaces/inkscape"
   width="140.99208mm"
   height="131.97307mm"
   viewBox="0 0 140.99208 131.97307"
   version="1.1"
   id="svg8"
   inkscape:version="1.0.2 (e86c870879, 2021-01-15)"
   sodipodi:docname="log.svg">
  <defs
     id="defs2">
    <marker
       style="overflow:visible"
       id="marker1467"
       refX="0"
       refY="0"
       orient="auto"
       inkscape:stockid="Arrow1Send"
       inkscape:isstock="true">
      <path
         transform="matrix(-0.2,0,0,-0.2,-1.2,0)"
         style="fill:#000000;fill-opacity:1;fill-rule:evenodd;stroke:#000000;stroke-width:1pt;stroke-opacity:1"
         d="M 0,0 5,-5 -12.5,0 5,5 Z"
         id="path1465" />
    </marker>
    <marker
       style="overflow:visible"
       id="marker1429"
       refX="0"
       refY="0"
       orient="auto"
       inkscape:stockid="Arrow1Send"
       inkscape:isstock="true">
      <path
         transform="matrix(-0.2,0,0,-0.2,-1.2,0)"
         style="fill:#000000;fill-opacity:1;fill-rule:evenodd;stroke:#000000;stroke-width:1pt;stroke-opacity:1"
         d="M 0,0 5,-5 -12.5,0 5,5 Z"
         id="path1427" />
    </marker>
    <marker
       style="overflow:visible"
       id="marker1289"
       refX="0"
       refY="0"
       orient="auto"
       inkscape:stockid="Arrow1Send"
       inkscape:isstock="true">
      <path
         transform="matrix(-0.2,0,0,-0.2,-1.2,0)"
         style="fill:#000000;fill-opacity:1;fill-rule:evenodd;stroke:#000000;stroke-width:1pt;stroke-opacity:1"
         d="M 0,0 5,-5 -12.5,0 5,5 Z"
         id="path1287" />
    </marker>
  </defs>
  <sodipodi:namedview
     id="base"
     pagecolor="#ffffff"
     bordercolor="#666666"
     borderopacity="1.0"
     inkscape:pageopacity="0.0"
     inkscape:pageshadow="2"
     inkscape:zoom="0.7"
     inkscape:cx="141.11239"
     inkscape:cy="301.26682"
     inkscape:document-units="mm"
     inkscape:current-layer="layer1"
     inkscape:document-rotation="0"
     showgrid="true"
     inkscape:snap-global="false"
     inkscape:window-width="958"
     inkscape:window-height="1008"
     inkscape:window-x="0"
     inkscape:window-y="0"
     inkscape:window-maximized="0"
     fit-margin-top="0"
     fit-margin-left="0"
     fit-margin-right="0"
     fit-margin-bottom="0">
    <inkscape:grid
       type="xygrid"
       id="grid26" />
  </sodipodi:namedview>
  <metadata
     id="metadata5">
    <rdf:RDF>
      <cc:Work
         rdf:about="">
        <dc:format>image/svg+xml</dc:format>
        <dc:type
           rdf:resource="http://purl.org/dc/dcmitype/StillImage" />
        <dc:title />
      </cc:Work>
    </rdf:RDF>
  </metadata>
  <g
     inkscape:label="Layer 1"
     inkscape:groupmode="layer"
     id="layer1"
     transform="translate(-116.49029,-273.04636)">
    <path
       style="font-variation-settings:normal;vector-effect:none;fill:#e0e3e9;fill-opacity:1;stroke:none;stroke-width:0.5398;stroke-linecap:butt;stroke-linejoin:miter;stroke-miterlimit:4;stroke-dasharray:none;stroke-dashoffset:0;stroke-opacity:1;stop-color:#000000"
       d="m 172.89128,292.26388 c -30.05485,-0.19269 -37.6279,-0.36255 -37.93807,-0.851 -0.48657,-0.76622 -0.81571,-7.43081 -0.55986,-11.3365 0.12532,-1.91316 0.39765,-3.29765 0.78075,-3.9692 l 0.5883,-1.03129 50.28815,0.3177 c 27.65849,0.17474 50.64762,0.42636 51.08697,0.55918 1.01479,0.30676 1.40747,1.85801 1.48745,5.87617 0.13086,6.57335 0.0171,7.90361 -0.80739,9.4466 l -0.7796,1.45882 -13.29808,-0.1149 c -7.31395,-0.0632 -30.19583,-0.22321 -50.84862,-0.35561 z"
       id="path138" />
    <path
       style="font-variation-settings:normal;vector-effect:none;fill:#e0e3e9;fill-opacity:1;stroke:none;stroke-width:0.474496;stroke-linecap:butt;stroke-linejoin:miter;stroke-miterlimit:4;stroke-dasharray:none;stroke-dashoffset:0;stroke-opacity:1;stop-color:#000000"
       d="m 134.16629,322.0995 c 0.065,-36.12393 0.15936,-45.22642 0.47276,-45.59993 0.49163,-0.58597 4.77543,-0.9914 7.28678,-0.68967 1.23016,0.1478 2.12073,0.47307 2.55321,0.93254 l 0.66413,0.70557 -0.10573,60.44304 c -0.0582,33.24366 -0.17488,60.87525 -0.2594,61.40351 -0.19521,1.22015 -1.1917,1.69442 -3.77468,1.79648 -4.22555,0.16699 -5.08096,0.0322 -6.0745,-0.95647 l -0.93936,-0.93486 0.0478,-15.98345 c 0.0263,-8.79092 0.0843,-36.29345 0.12899,-61.11676 z"
       id="path138-6" />
    <path
       style="font-variation-settings:normal;vector-effect:none;fill:#e0e3e9;fill-opacity:1;stroke:none;stroke-width:0.238273;stroke-linecap:butt;stroke-linejoin:miter;stroke-miterlimit:4;stroke-dasharray:none;stroke-dashoffset:0;stroke-opacity:1;stop-color:#000000"
       d="m 228.17412,287.41301 c 0.065,-9.10917 0.15936,-11.40449 0.47277,-11.49868 0.49163,-0.14776 4.77543,-0.24999 7.28677,-0.17391 1.23016,0.0373 2.12073,0.11929 2.55322,0.23516 l 0.66413,0.17792 -0.10573,15.24158 c -0.0582,8.38287 -0.17488,15.35057 -0.25941,15.48378 -0.19521,0.30768 -1.19169,0.42727 -3.77468,0.45301 -4.22555,0.0421 -5.08095,0.008 -6.0745,-0.24119 l -0.93936,-0.23574 0.0478,-4.03046 c 0.0263,-2.21675 0.0843,-9.15191 0.12899,-15.41147 z"
       id="path138-6-7" />
    <path
       style="font-variation-settings:normal;vector-effect:none;fill:#e0e3e9;fill-opacity:1;stroke:none;stroke-width:0.5398;stroke-linecap:butt;stroke-linejoin:miter;stroke-miterlimit:4;stroke-dasharray:none;stroke-dashoffset:0;stroke-opacity:1;stop-color:#000000"
       d="m 172.70039,401.3226 c -30.05485,-0.1927 -37.6279,-0.36256 -37.93806,-0.851 -0.48658,-0.76623 -0.8157,-7.43081 -0.55987,-11.3365 0.12533,-1.91317 0.39765,-3.29765 0.78075,-3.96921 l 0.5883,-1.03129 50.28816,0.3177 c 27.65848,0.17475 50.64761,0.42636 51.08696,0.55918 1.0148,0.30676 1.40747,1.85802 1.48747,5.87617 0.13084,6.57335 0.0171,7.90361 -0.80741,9.4466 l -0.7796,1.45883 -13.29808,-0.11491 c -7.31394,-0.0632 -30.19583,-0.2232 -50.84862,-0.35561 z"
       id="path138-68" />
    <rect
       style="fill:#e0e3e9;fill-opacity:1;stroke-width:0.264583"
       id="rect21"
       width="56.318451"
       height="13.229166"
       x="153.88307"
       y="295.759"
       rx="3.5214453" />
    <rect
       style="fill:#e0e3e9;fill-opacity:1;stroke-width:0.26206"
       id="rect21-3"
       width="55.249374"
       height="13.229166"
       x="153.54483"
       y="318.14841"
       rx="3.4545987" />
    <rect
       style="fill:#e0e3e9;fill-opacity:1;stroke-width:0.236048"
       id="rect21-1"
       width="44.825863"
       height="13.229166"
       x="153.67847"
       y="340.33179"
       rx="2.8028438" />
    <rect
       style="fill:#e0e3e9;fill-opacity:1;stroke-width:0.220776"
       id="rect21-6"
       width="39.2132"
       height="13.229166"
       x="153.54482"
       y="363.18335"
       rx="2.4518988" />
    <path
       style="font-variation-settings:normal;vector-effect:none;fill:#e0e3e9;fill-opacity:1;stroke:none;stroke-width:0.281637;stroke-linecap:butt;stroke-linejoin:miter;stroke-miterlimit:4;stroke-dasharray:none;stroke-dashoffset:0;stroke-opacity:1;stop-color:#000000"
       d="m 227.61975,373.93379 c 0.065,-12.72653 0.15936,-15.93336 0.47277,-16.06494 0.49163,-0.20644 4.77543,-0.34928 7.28677,-0.24298 1.23016,0.0521 2.12073,0.16667 2.55322,0.32854 l 0.66413,0.24857 -0.10573,21.2942 c -0.0582,11.71181 -0.17488,21.44647 -0.25941,21.63258 -0.19521,0.42986 -1.19169,0.59694 -3.77468,0.6329 -4.22555,0.0588 -5.08095,0.0113 -6.0745,-0.33697 l -0.93936,-0.32935 0.0478,-5.631 c 0.0263,-3.09706 0.0843,-12.78625 0.12899,-21.53155 z"
       id="path138-6-7-0" />
    <g
       id="g946"
       transform="translate(1.6036172,-3.4745039)">
      <g
         id="g950"
         transform="rotate(5.9520486,251.4498,374.82305)">
        <path
           sodipodi:type="star"
           style="fill:#e0e3e9;fill-opacity:1;stroke-width:0.264583"
           id="path219-9"
           sodipodi:sides="3"
           sodipodi:cx="207.03545"
           sodipodi:cy="347.88565"
           sodipodi:r1="33.849449"
           sodipodi:r2="16.924725"
           sodipodi:arg1="0.513606"
           sodipodi:arg2="1.5608036"
           inkscape:flatsided="true"
           inkscape:rounded="0"
           inkscape:randomized="0"
           inkscape:transform-center-x="-2.2116459"
           inkscape:transform-center-y="-0.7008222"
           d="m 236.51759,364.5166 -58.62604,0.58586 28.80565,-51.06457 z"
           transform="matrix(-0.2250516,-0.16202262,0.1329314,-0.19285258,199.92004,479.70895)" />
        <path
           style="font-variation-settings:normal;vector-effect:none;fill:#e0e3e9;fill-opacity:1;stroke:none;stroke-width:0.443184;stroke-linecap:butt;stroke-linejoin:miter;stroke-miterlimit:4;stroke-dasharray:none;stroke-dashoffset:0;stroke-opacity:1;stop-color:#000000"
           d="m 220.35631,332.99737 c 11.79388,-18.16122 14.86113,-22.6761 15.36586,-22.61768 0.79175,0.0917 6.16644,3.25968 9.14237,5.38889 1.45774,1.04296 2.44228,1.90806 2.82263,2.48019 l 0.58408,0.87856 -19.72997,30.38999 c -10.85154,16.71445 -19.95475,30.55344 -20.22952,30.75324 -0.6346,0.46148 -2.00805,-0.0839 -5.20263,-2.06592 -5.22607,-3.24242 -6.22933,-3.98379 -7.12479,-5.26444 l -0.84659,-1.21084 5.24168,-8.02063 c 2.88294,-4.41135 11.87248,-18.2315 19.97691,-30.71134 z"
           id="path138-6-7-5" />
      </g>
    </g>
  </g>
</svg>
