<?xml version="1.0" encoding="UTF-8" standalone="no"?>
<svg
   xmlns:dc="http://purl.org/dc/elements/1.1/"
   xmlns:cc="http://creativecommons.org/ns#"
   xmlns:rdf="http://www.w3.org/1999/02/22-rdf-syntax-ns#"
   xmlns:svg="http://www.w3.org/2000/svg"
   xmlns="http://www.w3.org/2000/svg"
   xmlns:sodipodi="http://sodipodi.sourceforge.net/DTD/sodipodi-0.dtd"
   xmlns:inkscape="http://www.inkscape.org/namespaces/inkscape"
   width="140.99208mm"
   height="131.97307mm"
   viewBox="0 0 140.99208 131.97307"
   version="1.1"
   id="svg8"
   inkscape:version="1.0.2 (e86c870879, 2021-01-15)"
   sodipodi:docname="manager.svg">
  <defs
     id="defs2">
    <marker
       style="overflow:visible"
       id="marker1467"
       refX="0"
       refY="0"
       orient="auto"
       inkscape:stockid="Arrow1Send"
       inkscape:isstock="true">
      <path
         transform="matrix(-0.2,0,0,-0.2,-1.2,0)"
         style="fill:#000000;fill-opacity:1;fill-rule:evenodd;stroke:#000000;stroke-width:1pt;stroke-opacity:1"
         d="M 0,0 5,-5 -12.5,0 5,5 Z"
         id="path1465" />
    </marker>
    <marker
       style="overflow:visible"
       id="marker1429"
       refX="0"
       refY="0"
       orient="auto"
       inkscape:stockid="Arrow1Send"
       inkscape:isstock="true">
      <path
         transform="matrix(-0.2,0,0,-0.2,-1.2,0)"
         style="fill:#000000;fill-opacity:1;fill-rule:evenodd;stroke:#000000;stroke-width:1pt;stroke-opacity:1"
         d="M 0,0 5,-5 -12.5,0 5,5 Z"
         id="path1427" />
    </marker>
    <marker
       style="overflow:visible"
       id="marker1289"
       refX="0"
       refY="0"
       orient="auto"
       inkscape:stockid="Arrow1Send"
       inkscape:isstock="true">
      <path
         transform="matrix(-0.2,0,0,-0.2,-1.2,0)"
         style="fill:#000000;fill-opacity:1;fill-rule:evenodd;stroke:#000000;stroke-width:1pt;stroke-opacity:1"
         d="M 0,0 5,-5 -12.5,0 5,5 Z"
         id="path1287" />
    </marker>
  </defs>
  <sodipodi:namedview
     id="base"
     pagecolor="#ffffff"
     bordercolor="#666666"
     borderopacity="1.0"
     inkscape:pageopacity="0.0"
     inkscape:pageshadow="2"
     inkscape:zoom="0.49497475"
     inkscape:cx="291.5034"
     inkscape:cy="272.58899"
     inkscape:document-units="mm"
     inkscape:current-layer="layer1"
     inkscape:document-rotation="0"
     showgrid="true"
     inkscape:snap-global="false"
     inkscape:window-width="1920"
     inkscape:window-height="1017"
     inkscape:window-x="-8"
     inkscape:window-y="-8"
     inkscape:window-maximized="1"
     fit-margin-top="0"
     fit-margin-left="0"
     fit-margin-right="0"
     fit-margin-bottom="0">
    <inkscape:grid
       type="xygrid"
       id="grid22" />
  </sodipodi:namedview>
  <metadata
     id="metadata5">
    <rdf:RDF>
      <cc:Work
         rdf:about="">
        <dc:format>image/svg+xml</dc:format>
        <dc:type
           rdf:resource="http://purl.org/dc/dcmitype/StillImage" />
        <dc:title />
      </cc:Work>
    </rdf:RDF>
  </metadata>
  <g
     inkscape:label="Layer 1"
     inkscape:groupmode="layer"
     id="layer1"
     transform="translate(-116.49029,-273.04636)">
    <path
       style="fill:#e0e3e9;fill-opacity:1;stroke-width:1.14534"
       d="m 200.86557,399.89593 c -0.31369,-0.27364 -0.49037,-0.56356 -0.54093,-0.88768 -0.028,-0.1795 0.2434,-1.50272 0.87533,-4.26752 0.50376,-2.20404 0.92673,-4.07734 0.93995,-4.1629 0.0181,-0.11656 -0.11242,-0.27095 -0.5203,-0.61592 -0.29937,-0.2532 -0.93014,-0.84789 -1.40169,-1.32155 -0.47156,-0.47365 -0.92528,-0.92722 -1.00827,-1.00794 -0.14062,-0.13672 -0.41858,-0.0714 -4.07653,0.9579 -2.77982,0.78223 -4.02008,1.09403 -4.24925,1.06824 -0.39151,-0.0441 -0.81853,-0.27908 -1.03563,-0.57 -0.43324,-0.58053 -2.99116,-6.20042 -3.6425,-8.00271 -0.72822,-2.01508 -0.77509,-2.28132 -0.51707,-2.93665 0.2137,-0.54273 0.47304,-0.73524 3.01698,-2.2395 1.21358,-0.71759 2.64087,-1.56931 3.1718,-1.8927 l 0.96531,-0.58798 -0.0823,-0.92091 c -0.0893,-0.99922 -0.1083,-2.54804 -0.0402,-3.27511 0.0235,-0.25084 0.0233,-0.48202 -3.5e-4,-0.51371 -0.0237,-0.0316 -1.1909,-0.71536 -2.59381,-1.51929 -4.67654,-2.67989 -4.6582,-2.66872 -4.85304,-2.95628 -0.0981,-0.1448 -0.20425,-0.4591 -0.23591,-0.69847 l -0.0576,-0.43524 1.9268,-4.89359 c 1.92158,-4.88033 1.92756,-4.89416 2.19378,-5.1185 0.30449,-0.25652 0.84394,-0.49223 1.08069,-0.47223 0.0882,0.008 1.95436,0.42594 4.14723,0.92996 2.19289,0.50404 4.02466,0.90963 4.07063,0.90135 0.0459,-0.008 0.1407,-0.095 0.21051,-0.19279 0.28848,-0.40386 1.21827,-1.38669 2.0177,-2.13283 l 0.85288,-0.796 -0.20614,-0.80593 c -0.32717,-1.27911 -0.71146,-2.59858 -1.42445,-4.89077 -0.69912,-2.24757 -0.71964,-2.3976 -0.40524,-2.96173 0.32724,-0.58737 1.8573,-1.42051 5.57817,-3.03767 3.64744,-1.58525 5.10452,-2.01812 5.81276,-1.72683 0.17135,0.0707 0.42193,0.2492 0.55663,0.39723 0.13473,0.14795 1.13669,1.77117 2.22657,3.60713 1.08988,1.83595 1.98697,3.34019 1.99352,3.34277 0.007,0.003 0.42672,-0.0219 0.9337,-0.0544 0.9737,-0.0624 2.50568,-0.0741 3.07376,-0.0234 0.18634,0.0166 0.35338,-0.007 0.3712,-0.0521 0.10826,-0.27496 1.94636,-3.56094 2.65558,-4.7474 1.47787,-2.47232 1.89208,-2.95187 2.60262,-3.01307 0.30726,-0.0265 0.58641,0.0734 5.08476,1.81984 3.30186,1.2818 4.86236,1.91558 5.09419,2.07113 0.39984,0.26699 0.72609,0.82762 0.70329,1.20862 -0.0131,0.21935 -1.78198,8.1072 -1.86576,8.31996 -0.0155,0.0393 0.006,0.0852 0.0489,0.10189 0.15988,0.063 1.76889,1.55598 2.38791,2.2158 l 0.64466,0.68713 3.92996,-1.09375 c 4.09155,-1.13871 4.38962,-1.1932 4.8769,-0.89156 0.55121,0.34121 0.84721,0.89538 2.60929,4.88497 1.08254,2.45103 1.68194,3.98069 1.9823,5.0588 0.227,0.81484 0.18418,1.2315 -0.17678,1.71995 -0.2634,0.35632 -0.56913,0.55435 -3.89545,2.52254 -1.48198,0.87688 -2.77581,1.65184 -2.87518,1.72213 -0.17219,0.12182 -0.17784,0.1703 -0.12098,1.03529 0.0792,1.20506 0.0916,1.82027 0.0573,2.8435 -0.0157,0.46912 0.007,0.8928 0.0495,0.94148 0.043,0.0486 1.62084,0.97991 3.5064,2.06937 1.88556,1.08947 3.51829,2.0529 3.62827,2.14096 0.30913,0.2475 0.46265,0.5734 0.49115,1.04273 l 0.0261,0.42936 -1.88041,4.77848 c -1.32856,3.3756 -1.93607,4.84888 -2.06937,5.01848 -0.22442,0.28548 -0.72096,0.57602 -1.04043,0.60877 -0.12607,0.0129 -0.58645,-0.0589 -1.02309,-0.15948 -3.73537,-0.86091 -7.3743,-1.68757 -7.38827,-1.67841 -0.01,0.006 -0.20141,0.21702 -0.42692,0.46861 -0.62413,0.69655 -1.56765,1.6596 -2.12819,2.17223 l -0.50334,0.46033 0.21712,0.82971 c 0.33248,1.27059 0.86122,3.07501 1.44916,4.94545 0.69681,2.21681 0.72196,2.51302 0.2646,3.11596 -0.64383,0.84879 -7.93976,4.13981 -10.17681,4.59051 -0.78904,0.15897 -1.07241,0.1165 -1.49272,-0.22371 -0.38022,-0.30776 -0.44073,-0.40333 -2.83843,-4.48383 l -1.55741,-2.65046 -1.16336,0.0624 c -1.13116,0.0607 -2.50102,0.0642 -2.9343,0.008 -0.25116,-0.0328 -0.14974,-0.18373 -1.35808,2.02138 -1.61944,2.95535 -2.87396,4.97471 -3.38097,5.44219 -0.31568,0.29107 -0.62642,0.38937 -1.07993,0.34163 -0.21774,-0.023 -1.80323,-0.61951 -5.06654,-1.90666 -3.89171,-1.53447 -4.79338,-1.91142 -4.99176,-2.08449 z m 15.51665,-18.14954 c 2.98054,0.475 5.97497,-0.25155 8.52258,-2.06788 1.70163,-1.21318 2.90251,-2.79715 3.74727,-4.94263 0.69751,-1.7715 0.93379,-3.31966 0.77681,-5.08974 -0.144,-1.62348 -0.81293,-3.57063 -1.74215,-5.07111 -0.50325,-0.81266 -1.4226,-1.8906 -2.10782,-2.47147 -1.68711,-1.43014 -4.18819,-2.47865 -6.40621,-2.6856 -2.97357,-0.27745 -6.22017,0.8281 -8.53008,2.90471 -2.63158,2.36581 -4.06624,6.25981 -3.59397,9.75488 0.12855,0.95134 0.45042,2.00902 0.96276,3.16369 0.95148,2.14436 2.29944,3.70895 4.24673,4.92924 0.84512,0.52959 3.19635,1.42806 4.12409,1.57588 z"
       id="path877" />
    <path
       style="font-variation-settings:normal;vector-effect:none;fill:#e0e3e9;fill-opacity:1;stroke:none;stroke-width:0.5398;stroke-linecap:butt;stroke-linejoin:miter;stroke-miterlimit:4;stroke-dasharray:none;stroke-dashoffset:0;stroke-opacity:1;stop-color:#000000"
       d="m 166.36858,293.39956 c -30.05485,-0.19269 -37.6279,-0.36255 -37.93807,-0.851 -0.48657,-0.76622 -0.81571,-7.43081 -0.55986,-11.3365 0.12532,-1.91316 0.39765,-3.29765 0.78075,-3.9692 l 0.5883,-1.03129 50.28815,0.3177 c 27.65849,0.17474 50.64762,0.42636 51.08697,0.55918 1.01479,0.30676 1.40747,1.85801 1.48745,5.87617 0.13086,6.57335 0.0171,7.90361 -0.80739,9.4466 l -0.7796,1.45882 -13.29808,-0.1149 c -7.31395,-0.0632 -30.19583,-0.22321 -50.84862,-0.35561 z"
       id="path138" />
    <path
       style="font-variation-settings:normal;vector-effect:none;fill:#e0e3e9;fill-opacity:1;stroke:none;stroke-width:0.474496;stroke-linecap:butt;stroke-linejoin:miter;stroke-miterlimit:4;stroke-dasharray:none;stroke-dashoffset:0;stroke-opacity:1;stop-color:#000000"
       d="m 127.64359,323.23518 c 0.065,-36.12393 0.15936,-45.22642 0.47276,-45.59993 0.49163,-0.58597 4.77543,-0.9914 7.28678,-0.68967 1.23016,0.1478 2.12073,0.47307 2.55321,0.93254 l 0.66413,0.70557 -0.10573,60.44304 c -0.0582,33.24366 -0.17488,60.87525 -0.2594,61.40351 -0.19521,1.22015 -1.1917,1.69442 -3.77468,1.79648 -4.22555,0.16699 -5.08096,0.0322 -6.0745,-0.95647 l -0.93936,-0.93486 0.0478,-15.98345 c 0.0263,-8.79092 0.0843,-36.29345 0.12899,-61.11676 z"
       id="path138-6" />
    <path
       style="font-variation-settings:normal;vector-effect:none;fill:#e0e3e9;fill-opacity:1;stroke:none;stroke-width:0.319914;stroke-linecap:butt;stroke-linejoin:miter;stroke-miterlimit:4;stroke-dasharray:none;stroke-dashoffset:0;stroke-opacity:1;stop-color:#000000"
       d="m 221.65142,297.9387 c 0.065,-16.42087 0.15936,-20.55858 0.47277,-20.72838 0.49163,-0.26635 4.77543,-0.45064 7.28677,-0.31349 1.23016,0.0673 2.12073,0.21504 2.55322,0.42391 l 0.66413,0.32074 -0.10573,27.47559 c -0.0582,15.11158 -0.17488,27.67207 -0.25941,27.9122 -0.19521,0.55465 -1.19169,0.77023 -3.77468,0.81664 -4.22555,0.0759 -5.08095,0.0144 -6.0745,-0.4348 l -0.93936,-0.42496 0.0478,-7.26561 c 0.0263,-3.99607 0.0843,-16.4979 0.12899,-27.78184 z"
       id="path138-6-7" />
    <path
       style="font-variation-settings:normal;vector-effect:none;fill:#e0e3e9;fill-opacity:1;stroke:none;stroke-width:0.400997;stroke-linecap:butt;stroke-linejoin:miter;stroke-miterlimit:4;stroke-dasharray:none;stroke-dashoffset:0;stroke-opacity:1;stop-color:#000000"
       d="m 148.88483,402.45828 c -16.58568,-0.1927 -20.76484,-0.36256 -20.936,-0.851 -0.26853,-0.76623 -0.45014,-7.43081 -0.30897,-11.3365 0.0691,-1.91317 0.21944,-3.29765 0.43086,-3.96921 l 0.32465,-1.03129 27.75138,0.3177 c 15.26325,0.17475 27.94973,0.42636 28.19219,0.55918 0.56001,0.30676 0.7767,1.85802 0.82085,5.87617 0.0722,6.57335 0.01,7.90361 -0.44556,9.4466 l -0.43022,1.45883 -7.3385,-0.11491 c -4.03619,-0.0632 -16.66349,-0.2232 -28.06068,-0.35561 z"
       id="path138-68" />
    <rect
       style="fill:#e0e3e9;fill-opacity:1;stroke-width:0.293739"
       id="rect21"
       width="69.414658"
       height="13.229166"
       x="146.69218"
       y="298.09738"
       rx="4.3403168" />
    <rect
       style="fill:#e0e3e9;fill-opacity:1;stroke-width:0.277454"
       id="rect21-3"
       width="61.931114"
       height="13.229166"
       x="146.62122"
       y="320.75406"
       rx="3.87239" />
    <rect
       style="fill:#e0e3e9;fill-opacity:1;stroke-width:0.216215"
       id="rect21-1"
       width="37.609589"
       height="13.229166"
       x="146.75487"
       y="343.20474"
       rx="2.3516288" />
    <rect
       style="fill:#e0e3e9;fill-opacity:1;stroke-width:0.200261"
       id="rect21-6"
       width="32.264191"
       height="13.229166"
       x="146.75485"
       y="365.38812"
       rx="2.0173955" />
  </g>
</svg>
