<?xml version="1.0" encoding="UTF-8" standalone="no"?>
<svg
   xmlns:dc="http://purl.org/dc/elements/1.1/"
   xmlns:cc="http://creativecommons.org/ns#"
   xmlns:rdf="http://www.w3.org/1999/02/22-rdf-syntax-ns#"
   xmlns:svg="http://www.w3.org/2000/svg"
   xmlns="http://www.w3.org/2000/svg"
   xmlns:sodipodi="http://sodipodi.sourceforge.net/DTD/sodipodi-0.dtd"
   xmlns:inkscape="http://www.inkscape.org/namespaces/inkscape"
   width="140.99208mm"
   height="131.97307mm"
   viewBox="0 0 140.99208 131.97307"
   version="1.1"
   id="svg8"
   inkscape:version="1.0.1 (3bc2e813f5, 2020-09-07)"
   sodipodi:docname="settings1.svg">
  <defs
     id="defs2">
    <marker
       style="overflow:visible"
       id="marker1467"
       refX="0"
       refY="0"
       orient="auto"
       inkscape:stockid="Arrow1Send"
       inkscape:isstock="true">
      <path
         transform="matrix(-0.2,0,0,-0.2,-1.2,0)"
         style="fill:#000000;fill-opacity:1;fill-rule:evenodd;stroke:#000000;stroke-width:1pt;stroke-opacity:1"
         d="M 0,0 5,-5 -12.5,0 5,5 Z"
         id="path1465" />
    </marker>
    <marker
       style="overflow:visible"
       id="marker1429"
       refX="0"
       refY="0"
       orient="auto"
       inkscape:stockid="Arrow1Send"
       inkscape:isstock="true">
      <path
         transform="matrix(-0.2,0,0,-0.2,-1.2,0)"
         style="fill:#000000;fill-opacity:1;fill-rule:evenodd;stroke:#000000;stroke-width:1pt;stroke-opacity:1"
         d="M 0,0 5,-5 -12.5,0 5,5 Z"
         id="path1427" />
    </marker>
    <marker
       style="overflow:visible"
       id="marker1289"
       refX="0"
       refY="0"
       orient="auto"
       inkscape:stockid="Arrow1Send"
       inkscape:isstock="true">
      <path
         transform="matrix(-0.2,0,0,-0.2,-1.2,0)"
         style="fill:#000000;fill-opacity:1;fill-rule:evenodd;stroke:#000000;stroke-width:1pt;stroke-opacity:1"
         d="M 0,0 5,-5 -12.5,0 5,5 Z"
         id="path1287" />
    </marker>
  </defs>
  <sodipodi:namedview
     id="base"
     pagecolor="#ffffff"
     bordercolor="#666666"
     borderopacity="1.0"
     inkscape:pageopacity="0.0"
     inkscape:pageshadow="2"
     inkscape:zoom="0.175"
     inkscape:cx="-1167.6848"
     inkscape:cy="498.74483"
     inkscape:document-units="mm"
     inkscape:current-layer="layer1"
     inkscape:document-rotation="0"
     showgrid="false"
     inkscape:snap-global="false"
     inkscape:window-width="1920"
     inkscape:window-height="972"
     inkscape:window-x="0"
     inkscape:window-y="27"
     inkscape:window-maximized="1"
     fit-margin-top="0"
     fit-margin-left="0"
     fit-margin-right="0"
     fit-margin-bottom="0" />
  <metadata
     id="metadata5">
    <rdf:RDF>
      <cc:Work
         rdf:about="">
        <dc:format>image/svg+xml</dc:format>
        <dc:type
           rdf:resource="http://purl.org/dc/dcmitype/StillImage" />
        <dc:title />
      </cc:Work>
    </rdf:RDF>
  </metadata>
  <g
     inkscape:label="Layer 1"
     inkscape:groupmode="layer"
     id="layer1"
     transform="translate(-116.49029,-273.04636)">
    <path
       style="fill:#d8dee9;stroke-width:0.999997;fill-opacity:1"
       d="m 173.55801,405.01755 c -0.63453,-0.0512 -1.11539,-0.24691 -1.47232,-0.59939 -0.1977,-0.19524 -1.06739,-2.06883 -2.80491,-6.04265 -1.38511,-3.16782 -2.56876,-5.85557 -2.63034,-5.97277 -0.0839,-0.1597 -0.38462,-0.23089 -1.19981,-0.28405 -0.59832,-0.039 -1.91462,-0.19651 -2.92513,-0.34997 -1.0105,-0.15346 -1.98081,-0.29847 -2.15625,-0.32222 -0.29723,-0.0402 -0.57958,0.29285 -4.14061,4.88502 -2.70619,3.4898 -3.94743,5.00105 -4.25264,5.17776 -0.52142,0.30191 -1.26011,0.40131 -1.79159,0.24109 -1.0606,-0.31972 -9.31633,-4.90264 -11.75615,-6.52606 -2.72789,-1.8151 -3.02767,-2.0998 -3.30642,-3.14014 -0.23087,-0.86159 -0.0871,-1.33409 1.67244,-5.49704 0.83937,-1.9859 1.81955,-4.33107 2.17817,-5.2115 l 0.65204,-1.60078 -0.93868,-1.05733 c -1.01851,-1.14727 -2.45044,-3.03411 -3.02796,-3.98991 -0.19926,-0.32978 -0.40969,-0.61384 -0.46763,-0.63125 -0.0579,-0.0174 -2.1147,0.20359 -4.5706,0.49107 -8.18663,0.95834 -8.15392,0.9554 -8.65499,0.77905 -0.25226,-0.0888 -0.66863,-0.37867 -0.92526,-0.64418 l -0.46658,-0.48274 -2.08159,-7.76857 c -2.07595,-7.74756 -2.08105,-7.77003 -1.9579,-8.28793 0.14105,-0.59228 0.58989,-1.37266 0.89917,-1.56338 0.1151,-0.0709 2.7901,-1.25373 5.94445,-2.62835 3.15434,-1.37463 5.77524,-2.54186 5.82421,-2.59386 0.049,-0.052 0.0865,-0.24481 0.0835,-0.42847 -0.0126,-0.75887 0.23663,-2.81278 0.54091,-4.45713 l 0.32462,-1.75426 -0.98636,-0.80335 c -1.5655,-1.27503 -3.23794,-2.54771 -6.19913,-4.71736 -2.90354,-2.12741 -3.06521,-2.29318 -3.19174,-3.27267 -0.13173,-1.01977 0.99154,-3.43552 4.09534,-8.8076 3.04255,-5.26608 4.44025,-7.12338 5.57588,-7.40935 0.27491,-0.0691 0.74539,-0.0773 1.0456,-0.0179 0.3002,0.0594 3.00824,1.14376 6.01785,2.40973 3.00961,1.26597 5.48054,2.29947 5.49094,2.29669 0.0104,-0.003 0.50471,-0.41502 1.09845,-0.91605 1.1403,-0.96227 3.01312,-2.36988 3.75762,-2.82423 0.2442,-0.14902 0.42824,-0.32975 0.40899,-0.4016 -0.11696,-0.43651 -0.84557,-6.148 -1.05266,-8.25165 -0.43152,-4.38354 -0.35839,-5.34981 0.45951,-6.07125 0.35369,-0.31198 0.78771,-0.44301 7.90633,-2.38696 5.22512,-1.42689 7.72029,-2.06589 8.14647,-2.0865 0.7344,-0.0354 1.64536,0.35713 1.96384,0.84629 0.18333,0.28159 5.1822,11.58777 5.27271,11.92553 0.0167,0.0624 0.0855,0.0987 0.15276,0.0807 0.25381,-0.068 3.58977,0.30427 4.95088,0.55248 l 1.41744,0.2585 3.83689,-4.91875 c 3.99464,-5.12098 4.31154,-5.45906 5.18493,-5.53137 0.988,-0.0818 1.8559,0.33031 7.65053,3.6327 3.55995,2.02883 5.68802,3.36432 7.03777,4.41661 1.02014,0.79532 1.34642,1.34653 1.34684,2.2753 3.1e-4,0.6776 -0.19554,1.19912 -2.49504,6.64394 -1.0245,2.42584 -1.91037,4.55525 -1.96861,4.73203 -0.10093,0.30637 -0.0638,0.37113 0.7928,1.38285 1.19334,1.40946 1.76808,2.15453 2.65646,3.44372 0.40729,0.59107 0.81998,1.09168 0.91707,1.11247 0.0971,0.0208 2.88386,-0.26934 6.19281,-0.64473 3.30896,-0.3754 6.19245,-0.67581 6.40775,-0.66757 0.60512,0.0231 1.09023,0.28419 1.55214,0.83527 l 0.42254,0.50413 2.03376,7.58496 c 1.43665,5.35823 2.02956,7.72204 2.01991,8.05176 -0.0162,0.55507 -0.36251,1.36384 -0.72548,1.69464 -0.14323,0.13053 -0.77451,0.461 -1.40286,0.73439 -5.37528,2.33869 -10.60085,4.63176 -10.6097,4.65571 -0.006,0.0161 -0.0503,0.45003 -0.0987,0.96439 -0.13384,1.42397 -0.41799,3.46603 -0.64093,4.60605 l -0.20018,1.02371 1.0215,0.82261 c 1.56429,1.25971 3.85536,2.99723 6.27925,4.7621 2.87272,2.09169 3.17302,2.43296 3.15909,3.59019 -0.0196,1.62904 -5.9964,12.31031 -8.33679,14.89888 -0.82549,0.91303 -1.21248,1.11853 -2.03862,1.08251 -0.74736,-0.0326 -0.90863,-0.095 -7.5674,-2.93113 l -4.32516,-1.84216 -1.3735,1.13472 c -1.3355,1.10333 -3.01641,2.35351 -3.60058,2.67793 -0.33863,0.18806 -0.35122,-0.0897 0.16866,3.72023 0.69677,5.10616 0.99091,8.7297 0.79273,9.76553 -0.12339,0.64495 -0.41603,1.04839 -1.017,1.40213 -0.28855,0.16985 -2.78036,0.87821 -7.96289,2.26367 -6.18019,1.6523 -7.63141,2.00931 -8.03268,1.97699 z m 2.57052,-36.42491 c 4.09634,-2.12666 7.11698,-5.74315 8.59722,-10.2931 0.98869,-3.03903 1.02457,-6.07853 0.11195,-9.48449 -0.75355,-2.81227 -1.87102,-4.93049 -3.67382,-6.96387 -1.65349,-1.86498 -4.24671,-3.6505 -6.75371,-4.65017 -1.35777,-0.5414 -3.46837,-1.03057 -4.83905,-1.12151 -3.37481,-0.22393 -7.40323,0.76161 -10.31831,2.52434 -3.9081,2.36319 -6.89411,6.67498 -7.8454,11.32871 -1.08377,5.30184 0.6938,11.39397 4.45299,15.26136 1.02324,1.0527 2.38086,2.06031 4.06083,3.01393 3.11994,1.771 6.20006,2.46865 9.70387,2.19794 1.52067,-0.11748 5.22839,-1.15119 6.50343,-1.81314 z"
       id="path875" />
    <path
       style="fill:#d8dee9;stroke-width:0.999997;fill-opacity:1"
       d="m 223.33244,331.79581 c -0.34238,-0.12197 -0.57865,-0.30098 -0.7234,-0.54812 -0.0802,-0.13688 -0.28294,-1.29866 -0.65395,-3.74693 -0.29576,-1.95169 -0.55136,-3.60886 -0.56799,-3.68259 -0.0226,-0.10047 -0.178,-0.18417 -0.61971,-0.33395 -0.3242,-0.10994 -1.02686,-0.3913 -1.56146,-0.62526 -0.5346,-0.23395 -1.04829,-0.4573 -1.14153,-0.49633 -0.15797,-0.0661 -0.3629,0.0759 -3.00536,2.08217 -2.00811,1.52468 -2.91596,2.17471 -3.11039,2.22706 -0.33217,0.0894 -0.75424,0.0351 -1.02367,-0.13179 -0.53766,-0.33305 -4.41337,-4.08042 -5.51901,-5.33626 -1.23618,-1.40411 -1.35943,-1.60541 -1.35943,-2.22033 0,-0.50927 0.14911,-0.74862 1.73463,-2.78442 0.75637,-0.97116 1.64346,-2.11965 1.97134,-2.5522 l 0.59614,-0.78646 -0.36143,-0.72182 c -0.39216,-0.7832 -0.90303,-2.03538 -1.08029,-2.64783 -0.0611,-0.21131 -0.13523,-0.39906 -0.16461,-0.41722 -0.0293,-0.0181 -1.19631,-0.20022 -2.59319,-0.40458 -4.65644,-0.68124 -4.63797,-0.67803 -4.88824,-0.84932 -0.126,-0.0863 -0.31279,-0.30764 -0.41508,-0.49198 l -0.18598,-0.33517 v -4.59188 c 0,-4.57944 4.4e-4,-4.59259 0.14495,-4.86 0.16532,-0.3058 0.52816,-0.66984 0.7269,-0.72932 0.074,-0.0221 1.72397,-0.27912 3.66668,-0.57109 1.94272,-0.29197 3.56059,-0.5484 3.59528,-0.56983 0.0347,-0.0214 0.0839,-0.12222 0.10936,-0.22396 0.10517,-0.42038 0.54615,-1.51625 0.95694,-2.37812 l 0.43825,-0.91949 -0.42526,-0.58879 c -0.67494,-0.9345 -1.40921,-1.88351 -2.72165,-3.51762 -1.2869,-1.60229 -1.35156,-1.71761 -1.2766,-2.27648 0.078,-0.58185 1.05449,-1.74812 3.56003,-4.25211 2.4561,-2.45458 3.50137,-3.27232 4.16991,-3.26222 0.16182,0.003 0.42249,0.0675 0.57927,0.14466 0.15679,0.0771 1.49,1.0753 2.96269,2.2182 1.47269,1.1429 2.68266,2.07799 2.6888,2.07799 0.006,0 0.33967,-0.15428 0.74114,-0.34286 0.77106,-0.36218 2.0119,-0.86171 2.48962,-1.00226 0.1567,-0.0461 0.2849,-0.11857 0.2849,-0.16105 0,-0.258 0.44217,-3.51549 0.63882,-4.70623 0.40979,-2.48124 0.5929,-3.00332 1.15057,-3.28032 0.24116,-0.11978 0.49988,-0.12791 4.71297,-0.14805 3.09244,-0.0148 4.56292,0.001 4.80101,0.0531 0.41024,0.089 0.85461,0.44009 0.95796,0.75692 0.0595,0.18238 1.1456,7.15628 1.1456,7.35593 0,0.0368 0.0325,0.0671 0.0723,0.0671 0.15002,0 1.93476,0.69826 2.64871,1.03629 l 0.74351,0.35201 2.84284,-2.14565 c 2.95973,-2.23387 3.18445,-2.37348 3.6768,-2.2843 0.55695,0.10089 0.97468,0.45641 3.68236,3.13391 1.66347,1.64493 2.63973,2.6959 3.2286,3.47568 0.44506,0.58936 0.54355,0.94155 0.40654,1.45383 -0.1,0.37373 -0.28503,0.6324 -2.35776,3.29536 -0.92347,1.18642 -1.72668,2.22986 -1.78492,2.31875 -0.10093,0.15404 -0.09,0.19524 0.23287,0.87977 0.44984,0.95364 0.6567,1.44947 0.95612,2.29172 0.13728,0.38615 0.2909,0.72322 0.34137,0.74903 0.0505,0.0258 1.63021,0.27761 3.51053,0.55955 1.88032,0.28194 3.51492,0.54236 3.63244,0.57872 0.3303,0.10218 0.55926,0.31784 0.73255,0.69001 l 0.15854,0.34046 10e-4,4.48353 c 4.5e-4,3.1673 -0.0218,4.55852 -0.0759,4.73894 -0.091,0.30371 -0.40145,0.69857 -0.65051,0.82737 -0.0983,0.0508 -0.49526,0.13978 -0.88218,0.1977 -3.30999,0.49545 -6.53068,0.98786 -6.5391,0.99977 -0.006,0.008 -0.0942,0.24074 -0.19693,0.51726 -0.28423,0.76552 -0.74269,1.84971 -1.0341,2.44547 l -0.26167,0.53498 0.44179,0.60461 c 0.67654,0.92587 1.68328,2.22265 2.75922,3.55413 1.27519,1.57804 1.39037,1.81063 1.21168,2.44676 -0.25154,0.8955 -5.12604,5.9029 -6.79925,6.98462 -0.59017,0.38154 -0.83395,0.43768 -1.28424,0.29574 -0.40734,-0.1284 -0.48706,-0.18669 -3.7402,-2.73472 l -2.11305,-1.65506 -0.92515,0.42283 c -0.89955,0.41111 -2.01129,0.85218 -2.38139,0.94478 -0.21454,0.0537 -0.18043,-0.10137 -0.45672,2.07658 -0.37029,2.91894 -0.74352,4.96075 -1.00588,5.50271 -0.16336,0.33744 -0.38436,0.5167 -0.76806,0.62298 -0.18423,0.051 -1.66311,0.0735 -4.72594,0.0717 -3.65246,-0.002 -4.50555,-0.0196 -4.72207,-0.0967 z m 6.80014,-19.70804 c 2.57333,-0.56751 4.7736,-2.11559 6.26228,-4.40609 0.99433,-1.52989 1.46326,-3.20084 1.46326,-5.21404 0,-1.66228 -0.30326,-2.99559 -0.997,-4.38338 -0.63629,-1.27285 -1.80257,-2.64074 -3.03743,-3.5625 -0.66879,-0.49922 -1.76048,-1.08087 -2.50296,-1.33358 -1.82807,-0.62218 -4.19533,-0.67396 -6.06344,-0.1326 -2.50448,0.72577 -4.78838,2.66242 -6.00069,5.08833 -1.38113,2.76375 -1.30106,6.38615 0.20059,9.07447 0.40875,0.73175 1.00856,1.48805 1.79413,2.26222 1.4589,1.43772 3.05446,2.27762 5.02677,2.64609 0.85598,0.15991 3.05351,0.13773 3.85449,-0.0389 z"
       id="path877" />
  </g>
</svg>
