<?xml version="1.0" encoding="UTF-8" standalone="no"?>
<svg
   xmlns:dc="http://purl.org/dc/elements/1.1/"
   xmlns:cc="http://creativecommons.org/ns#"
   xmlns:rdf="http://www.w3.org/1999/02/22-rdf-syntax-ns#"
   xmlns:svg="http://www.w3.org/2000/svg"
   xmlns="http://www.w3.org/2000/svg"
   xmlns:sodipodi="http://sodipodi.sourceforge.net/DTD/sodipodi-0.dtd"
   xmlns:inkscape="http://www.inkscape.org/namespaces/inkscape"
   width="95.05851mm"
   height="47.336124mm"
   viewBox="0 0 95.05851 47.336125"
   version="1.1"
   id="svg8"
   inkscape:version="1.0.1 (3bc2e813f5, 2020-09-07)"
   sodipodi:docname="terrain2.svg">
  <defs
     id="defs2">
    <marker
       style="overflow:visible"
       id="marker1467"
       refX="0"
       refY="0"
       orient="auto"
       inkscape:stockid="Arrow1Send"
       inkscape:isstock="true">
      <path
         transform="matrix(-0.2,0,0,-0.2,-1.2,0)"
         style="fill:#000000;fill-opacity:1;fill-rule:evenodd;stroke:#000000;stroke-width:1pt;stroke-opacity:1"
         d="M 0,0 5,-5 -12.5,0 5,5 Z"
         id="path1465" />
    </marker>
    <marker
       style="overflow:visible"
       id="marker1429"
       refX="0"
       refY="0"
       orient="auto"
       inkscape:stockid="Arrow1Send"
       inkscape:isstock="true">
      <path
         transform="matrix(-0.2,0,0,-0.2,-1.2,0)"
         style="fill:#000000;fill-opacity:1;fill-rule:evenodd;stroke:#000000;stroke-width:1pt;stroke-opacity:1"
         d="M 0,0 5,-5 -12.5,0 5,5 Z"
         id="path1427" />
    </marker>
    <marker
       style="overflow:visible"
       id="marker1289"
       refX="0"
       refY="0"
       orient="auto"
       inkscape:stockid="Arrow1Send"
       inkscape:isstock="true">
      <path
         transform="matrix(-0.2,0,0,-0.2,-1.2,0)"
         style="fill:#000000;fill-opacity:1;fill-rule:evenodd;stroke:#000000;stroke-width:1pt;stroke-opacity:1"
         d="M 0,0 5,-5 -12.5,0 5,5 Z"
         id="path1287" />
    </marker>
  </defs>
  <sodipodi:namedview
     id="base"
     pagecolor="#ffffff"
     bordercolor="#666666"
     borderopacity="1.0"
     inkscape:pageopacity="0.0"
     inkscape:pageshadow="2"
     inkscape:zoom="1.4"
     inkscape:cx="-32.453768"
     inkscape:cy="153.24805"
     inkscape:document-units="mm"
     inkscape:current-layer="layer1"
     inkscape:document-rotation="0"
     showgrid="false"
     inkscape:snap-global="false"
     inkscape:window-width="1920"
     inkscape:window-height="972"
     inkscape:window-x="0"
     inkscape:window-y="27"
     inkscape:window-maximized="1"
     fit-margin-top="0"
     fit-margin-left="0"
     fit-margin-right="0"
     fit-margin-bottom="0" />
  <metadata
     id="metadata5">
    <rdf:RDF>
      <cc:Work
         rdf:about="">
        <dc:format>image/svg+xml</dc:format>
        <dc:type
           rdf:resource="http://purl.org/dc/dcmitype/StillImage" />
        <dc:title />
      </cc:Work>
    </rdf:RDF>
  </metadata>
  <g
     inkscape:label="Layer 1"
     inkscape:groupmode="layer"
     id="layer1"
     transform="translate(-137.1513,-267.91661)">
    <g
       id="g1061"
       transform="matrix(1,0,-0.66139759,0.75003548,-101.79975,100.80887)"
       style="opacity:1">
      <path
         style="color:#000000;font-style:normal;font-variant:normal;font-weight:normal;font-stretch:normal;font-size:medium;line-height:normal;font-family:sans-serif;font-variant-ligatures:normal;font-variant-position:normal;font-variant-caps:normal;font-variant-numeric:normal;font-variant-alternates:normal;font-variant-east-asian:normal;font-feature-settings:normal;font-variation-settings:normal;text-indent:0;text-align:start;text-decoration:none;text-decoration-line:none;text-decoration-style:solid;text-decoration-color:#000000;letter-spacing:normal;word-spacing:normal;text-transform:none;writing-mode:lr-tb;direction:ltr;text-orientation:mixed;dominant-baseline:auto;baseline-shift:baseline;text-anchor:start;white-space:normal;shape-padding:0;shape-margin:0;inline-size:0;clip-rule:nonzero;display:inline;overflow:visible;visibility:visible;isolation:auto;mix-blend-mode:normal;color-interpolation:sRGB;color-interpolation-filters:linearRGB;solid-color:#000000;solid-opacity:1;vector-effect:none;fill:#f9fdfa;fill-opacity:1;fill-rule:evenodd;stroke:none;stroke-width:3.2331;stroke-linecap:round;stroke-linejoin:round;stroke-miterlimit:4;stroke-dasharray:none;stroke-dashoffset:0;stroke-opacity:1;color-rendering:auto;image-rendering:auto;shape-rendering:auto;text-rendering:auto;enable-background:accumulate;stop-color:#000000;stop-opacity:1"
         d="M -0.8324275,215.16289 H 56.474608 c 3.023375,0 5.457356,1.4239 5.457356,3.1926 v 33.52511 c 0,1.7687 -2.433981,3.1926 -5.457356,3.1926 H -0.8324275 c -3.0233755,0 -5.4573565,-1.4239 -5.4573565,-3.1926 v -33.52511 c 0,-1.7687 2.433981,-3.1926 5.4573565,-3.1926 z"
         id="path1059" />
    </g>
    <path
       id="path1094"
       style="color:#000000;font-style:normal;font-variant:normal;font-weight:normal;font-stretch:normal;font-size:medium;line-height:normal;font-family:sans-serif;font-variant-ligatures:normal;font-variant-position:normal;font-variant-caps:normal;font-variant-numeric:normal;font-variant-alternates:normal;font-variant-east-asian:normal;font-feature-settings:normal;font-variation-settings:normal;text-indent:0;text-align:start;text-decoration:none;text-decoration-line:none;text-decoration-style:solid;text-decoration-color:#000000;letter-spacing:normal;word-spacing:normal;text-transform:none;writing-mode:lr-tb;direction:ltr;text-orientation:mixed;dominant-baseline:auto;baseline-shift:baseline;text-anchor:start;white-space:normal;shape-padding:0;shape-margin:0;inline-size:0;clip-rule:nonzero;display:inline;overflow:visible;visibility:visible;isolation:auto;mix-blend-mode:normal;color-interpolation:sRGB;color-interpolation-filters:linearRGB;solid-color:#000000;solid-opacity:1;vector-effect:none;fill:#d8dee9;fill-opacity:1;fill-rule:evenodd;stroke:none;stroke-width:2.80001;stroke-linecap:round;stroke-linejoin:round;stroke-miterlimit:4;stroke-dasharray:none;stroke-dashoffset:0;stroke-opacity:1;color-rendering:auto;image-rendering:auto;shape-rendering:auto;text-rendering:auto;enable-background:accumulate;stop-color:#000000"
       d="m 170.2949,276.65819 c -0.73527,0 -1.49042,0.0544 -2.25102,0.15555 0.2622,0.57076 0.52884,1.11492 0.80047,1.63142 0.31432,-0.0223 0.62779,-0.0367 0.93741,-0.0367 h 55.2452 c 2.91462,0 4.35338,1.03004 3.22565,2.3089 l -21.37596,24.24038 c -1.12772,1.27886 -4.38158,2.30838 -7.2962,2.30838 h -55.24572 c -2.91461,0 -4.35286,-1.02952 -3.22512,-2.30838 l 13.78572,-15.63315 c 0.1404,-1.33195 0.34255,-2.6538 0.6475,-3.95945 l -17.67592,20.04477 c -0.74071,0.83998 -0.84914,1.55313 -0.58498,2.10169 l 0.0186,4.99349 c -0.34687,0.81134 -0.0538,1.45605 0.54363,1.88359 0.7952,0.56915 2.15161,0.86405 3.91707,0.86405 h 57.3071 c 1.76547,0 3.64051,-0.2949 5.43946,-0.86405 1.79896,-0.56912 3.73934,-1.52297 4.8147,-2.74246 l 22.17384,-25.14523 c 0.75699,-0.85845 0.85097,-1.58362 0.56379,-2.13682 l 0.0212,-5.00797 c 0.31334,-0.78705 0.0216,-1.41382 -0.56327,-1.83244 -0.79521,-0.56913 -2.15109,-0.86558 -3.91656,-0.86558 z m -9.80973,3.15949 c -0.16053,0.1447 -0.30969,0.29363 -0.44494,0.447 l -2.34352,2.65773 c 0.42889,0.59118 0.88057,1.15451 1.37769,1.66294 l 1.45211,-1.64693 c -0.10652,-1.08356 -0.11766,-2.12179 -0.0413,-3.12074 z" />
    <path
       style="fill:none;fill-opacity:1;stroke:#d8dee9;stroke-width:3;stroke-linecap:round;stroke-linejoin:round;stroke-miterlimit:4;stroke-dasharray:none;stroke-opacity:1"
       d="m 154.4181,301.42116 c 0.35103,-6.68677 -0.3209,-13.53707 2.34508,-19.85378 1.20073,1.80174 2.43496,3.56284 4.31369,4.54235 -1.7038,-6.97568 0.0603,-12.21587 4.35773,-16.69327 2.95923,11.0219 7.33168,15.12868 11.34346,18.47426"
       id="path1096"
       sodipodi:nodetypes="ccccc" />
    <path
       style="fill:none;fill-opacity:1;stroke:#d8dee9;stroke-width:3;stroke-linecap:round;stroke-linejoin:round;stroke-miterlimit:4;stroke-dasharray:none;stroke-opacity:1"
       d="m 174.60088,295.51779 c 1.47232,-5.49723 1.45068,-5.01396 2.40298,-7.69021 0.96344,-2.69929 4.11156,-3.62046 5.99029,-2.64095 0.48037,-2.66322 1.27147,-6.48659 5.5689,-10.96399 2.82309,3.31982 5.23004,15.31216 10.1844,18.32876"
       id="path1098"
       sodipodi:nodetypes="ccccc" />
  </g>
</svg>
